<svg width="20" height="20" xmlns="http://www.w3.org/2000/svg" fill="none" viewBox="0 0 20 20" class="shrink-0"><path fill="#1C232D" d="M10 5H7.5a.833.833 0 0 0-.833.834v8.333a.833.833 0 1 0 1.666 0v-2.5H10A3.333 3.333 0 0 0 10 5Zm0 5H8.333V6.667H10A1.667 1.667 0 0 1 10 10Zm5.833-8.333H4.167a2.5 2.5 0 0 0-2.5 2.5v11.667a2.5 2.5 0 0 0 2.5 2.5h11.666a2.5 2.5 0 0 0 2.5-2.5V4.167a2.5 2.5 0 0 0-2.5-2.5Zm.834 14.167a.833.833 0 0 1-.834.833H4.167a.833.833 0 0 1-.834-.833V4.167a.833.833 0 0 1 .834-.833h11.666a.833.833 0 0 1 .834.833v11.667Z"/></svg>
