<svg xmlns="http://www.w3.org/2000/svg" class="shrink-0" viewBox="0 0 24 24"><path d="M12.5 5c-.55 0-1.021-.196-1.413-.588A1.922 1.922 0 0 1 10.5 3c0-.55.196-1.021.588-1.413A1.922 1.922 0 0 1 12.5 1c.55 0 1.021.196 1.413.588.392.392.588.863.587 1.412 0 .55-.196 1.021-.588 1.413A1.922 1.922 0 0 1 12.5 5ZM7.325 22.5c-.367 0-.658-.13-.875-.388-.217-.259-.283-.563-.2-.912L8.8 8.4 7 9.1v2.4c0 .283-.096.52-.288.712A.973.973 0 0 1 6 12.5a.968.968 0 0 1-.713-.288A.964.964 0 0 1 5 11.5V9.125a1.993 1.993 0 0 1 1.225-1.85L10.05 5.65c.483-.2.975-.221 1.475-.063.5.158.892.462 1.175.913l1 1.6a5.3 5.3 0 0 0 1.425 1.5c.583.417 1.25.692 2 .825.25.033.458.146.625.337.167.191.25.404.25.638 0 .317-.113.579-.338.787-.225.208-.48.287-.762.238a7.176 7.176 0 0 1-2.462-.838A6.972 6.972 0 0 1 12.5 10l-.6 3 1.475 1.4c.2.2.354.421.463.663.109.242.163.504.162.787v5.65a.968.968 0 0 1-.288.713.964.964 0 0 1-.712.287.968.968 0 0 1-.713-.288A.964.964 0 0 1 12 21.5v-5l-2.1-2-1.625 7.25c-.05.2-.163.375-.338.525a.913.913 0 0 1-.612.225Z"/></svg>
