<svg width="20" height="20" viewBox="0 0 20 20" xmlns="http://www.w3.org/2000/svg" class="shrink-0">
<path fill-rule="evenodd" clip-rule="evenodd" d="M5.696 5.078L5.398 6H4.5C3.70435 6 2.94129 6.31607 2.37868 6.87868C1.81607 7.44129 1.5 8.20435 1.5 9V15C1.5 15.7956 1.81607 16.5587 2.37868 17.1213C2.94129 17.6839 3.70435 18 4.5 18H15.5C16.2956 18 17.0587 17.6839 17.6213 17.1213C18.1839 16.5587 18.5 15.7956 18.5 15V9C18.5 8.20435 18.1839 7.44129 17.6213 6.87868C17.0587 6.31607 16.2956 6 15.5 6H14.601L14.304 5.078C14.109 4.47423 13.7276 3.94783 13.2146 3.57445C12.7016 3.20108 12.0835 2.99996 11.449 3H8.55C7.91552 2.99996 7.29737 3.20108 6.78438 3.57445C6.2714 3.94783 5.89 4.47423 5.695 5.078H5.696ZM4.5 8H6.854L7.6 5.693C7.66491 5.49179 7.79191 5.31633 7.96278 5.19182C8.13365 5.0673 8.33958 5.00015 8.551 5H11.449C11.6604 5.00015 11.8664 5.0673 12.0372 5.19182C12.2081 5.31633 12.3351 5.49179 12.4 5.693L13.145 8H15.5C15.7652 8 16.0196 8.10536 16.2071 8.29289C16.3946 8.48043 16.5 8.73478 16.5 9V15C16.5 15.2652 16.3946 15.5196 16.2071 15.7071C16.0196 15.8946 15.7652 16 15.5 16H4.5C4.23478 16 3.98043 15.8946 3.79289 15.7071C3.60536 15.5196 3.5 15.2652 3.5 15V9C3.5 8.73478 3.60536 8.48043 3.79289 8.29289C3.98043 8.10536 4.23478 8 4.5 8Z"  />
<path fill-rule="evenodd" clip-rule="evenodd" d="M6.5 11.5C6.5 11.9596 6.59053 12.4148 6.76642 12.8394C6.94231 13.264 7.20012 13.6499 7.52513 13.9749C7.85013 14.2999 8.23597 14.5577 8.66061 14.7336C9.08525 14.9095 9.54037 15 10 15C10.4596 15 10.9148 14.9095 11.3394 14.7336C11.764 14.5577 12.1499 14.2999 12.4749 13.9749C12.7999 13.6499 13.0577 13.264 13.2336 12.8394C13.4095 12.4148 13.5 11.9596 13.5 11.5C13.5 10.5717 13.1313 9.6815 12.4749 9.02513C11.8185 8.36875 10.9283 8 10 8C9.07174 8 8.1815 8.36875 7.52513 9.02513C6.86875 9.6815 6.5 10.5717 6.5 11.5V11.5ZM11.5 11.5C11.5 11.8978 11.342 12.2794 11.0607 12.5607C10.7794 12.842 10.3978 13 10 13C9.60218 13 9.22064 12.842 8.93934 12.5607C8.65804 12.2794 8.5 11.8978 8.5 11.5C8.5 11.1022 8.65804 10.7206 8.93934 10.4393C9.22064 10.158 9.60218 10 10 10C10.3978 10 10.7794 10.158 11.0607 10.4393C11.342 10.7206 11.5 11.1022 11.5 11.5Z"  />
</svg>
