<svg width="20" height="20" viewBox="0 0 20 20" xmlns="http://www.w3.org/2000/svg" class="shrink-0">
<path d="M5.83301 15.0003C4.91634 15.0003 4.17467 15.7503 4.17467 16.667C4.17467 17.5837 4.91634 18.3337 5.83301 18.3337C6.74967 18.3337 7.49967 17.5837 7.49967 16.667C7.49967 15.7503 6.74967 15.0003 5.83301 15.0003ZM14.1663 15.0003C13.2497 15.0003 12.508 15.7503 12.508 16.667C12.508 17.5837 13.2497 18.3337 14.1663 18.3337C15.083 18.3337 15.833 17.5837 15.833 16.667C15.833 15.7503 15.083 15.0003 14.1663 15.0003ZM12.958 10.8337C13.583 10.8337 14.133 10.492 14.4163 9.97533L17.3997 4.56699C17.4699 4.44068 17.5059 4.29822 17.5042 4.1537C17.5025 4.00919 17.463 3.86764 17.3898 3.74304C17.3166 3.61845 17.212 3.51514 17.0866 3.44334C16.9612 3.37154 16.8192 3.33373 16.6747 3.33366H4.34134L3.55801 1.66699H0.833008V3.33366H2.49967L5.49967 9.65866L4.37467 11.692C3.76634 12.8087 4.56634 14.167 5.83301 14.167H15.833V12.5003H5.83301L6.74967 10.8337H12.958ZM5.13301 5.00033H15.258L12.958 9.16699H7.10801L5.13301 5.00033Z"/>
</svg>
