<svg xmlns="http://www.w3.org/2000/svg" class="shrink-0"  viewBox="0 0 24 24"><path d="M6 21v-1l1.5-1c-.983 0-1.813-.337-2.488-1.012S3.999 16.484 4 15.5V6c0-1.383.642-2.396 1.925-3.038C7.208 2.32 9.233 1.999 12 2c2.867 0 4.917.308 6.15.925C19.383 3.542 20 4.567 20 6v9.5c0 .983-.337 1.813-1.012 2.488S17.484 19.001 16.5 19l1.5 1v1H6Zm0-11h12V7H6v3Zm6 6c.417 0 .771-.146 1.063-.438.292-.292.438-.646.437-1.062 0-.417-.146-.771-.438-1.063A1.443 1.443 0 0 0 12 13c-.417 0-.771.146-1.063.438A1.443 1.443 0 0 0 10.5 14.5c0 .417.146.771.438 1.063.292.292.646.438 1.062.437Z"/></svg>
