<svg width="24" height="24" viewBox="0 0 20 20" xmlns="http://www.w3.org/2000/svg" class="shrink-0">
<path d="M9.16663 14.1667H10.8333V13.3334H11.6666C11.9027 13.3334 12.1008 13.2534 12.2608 13.0934C12.4202 12.9339 12.5 12.7362 12.5 12.5V10C12.5 9.76393 12.4202 9.56587 12.2608 9.40587C12.1008 9.24643 11.9027 9.16671 11.6666 9.16671H9.16663V8.33337H12.5V6.66671H10.8333V5.83337H9.16663V6.66671H8.33329C8.09718 6.66671 7.8994 6.74643 7.73996 6.90587C7.57996 7.06587 7.49996 7.26393 7.49996 7.50004V10C7.49996 10.2362 7.57996 10.4339 7.73996 10.5934C7.8994 10.7534 8.09718 10.8334 8.33329 10.8334H10.8333V11.6667H7.49996V13.3334H9.16663V14.1667ZM3.33329 16.6667C2.87496 16.6667 2.48274 16.5037 2.15663 16.1775C1.82996 15.8509 1.66663 15.4584 1.66663 15V5.00004C1.66663 4.54171 1.82996 4.14948 2.15663 3.82337C2.48274 3.49671 2.87496 3.33337 3.33329 3.33337H16.6666C17.125 3.33337 17.5175 3.49671 17.8441 3.82337C18.1702 4.14948 18.3333 4.54171 18.3333 5.00004V15C18.3333 15.4584 18.1702 15.8509 17.8441 16.1775C17.5175 16.5037 17.125 16.6667 16.6666 16.6667H3.33329ZM3.33329 15H16.6666V5.00004H3.33329V15ZM3.33329 15V5.00004V15Z"/>
</svg>
